<svg width="512" height="512" viewBox="0 0 512 512" fill="none" xmlns="http://www.w3.org/2000/svg">
<rect width="512" height="512" rx="80" fill="#3B82F6"/>
<path d="M128 192C128 174.327 142.327 160 160 160H352C369.673 160 384 174.327 384 192V352C384 369.673 369.673 384 352 384H160C142.327 384 128 369.673 128 352V192Z" fill="white"/>
<path d="M176 224C176 215.163 183.163 208 192 208H224C232.837 208 240 215.163 240 224V256C240 264.837 232.837 272 224 272H192C183.163 272 176 264.837 176 256V224Z" fill="#3B82F6"/>
<path d="M272 224C272 215.163 279.163 208 288 208H320C328.837 208 336 215.163 336 224V256C336 264.837 328.837 272 320 272H288C279.163 272 272 264.837 272 256V224Z" fill="#3B82F6"/>
<path d="M176 304C176 295.163 183.163 288 192 288H320C328.837 288 336 295.163 336 304V320C336 328.837 328.837 336 320 336H192C183.163 336 176 328.837 176 320V304Z" fill="#3B82F6"/>
<circle cx="256" cy="128" r="32" fill="white"/>
<path d="M240 96L256 80L272 96" stroke="white" stroke-width="4" stroke-linecap="round" stroke-linejoin="round"/>
</svg>
